<svg width="140" height="26" viewBox="0 0 140 26" fill="none" xmlns="http://www.w3.org/2000/svg">
<path d="M2.96405 16.848H9.07405V19.24H4.89056e-05V1.16999H2.96405V16.848ZM10.5648 12.012C10.5648 10.5733 10.8594 9.29932 11.4488 8.18999C12.0554 7.08066 12.8701 6.22266 13.8928 5.61599C14.9328 4.99199 16.0768 4.67999 17.3248 4.67999C18.4515 4.67999 19.4308 4.90532 20.2628 5.35599C21.1121 5.78932 21.7881 6.33532 22.2908 6.99399V4.91399H25.2808V19.24H22.2908V17.108C21.7881 17.784 21.1035 18.3473 20.2368 18.798C19.3701 19.2487 18.3821 19.474 17.2728 19.474C16.0421 19.474 14.9155 19.162 13.8928 18.538C12.8701 17.8967 12.0554 17.0127 11.4488 15.886C10.8594 14.742 10.5648 13.4507 10.5648 12.012ZM22.2908 12.064C22.2908 11.076 22.0828 10.218 21.6668 9.48999C21.2681 8.76199 20.7395 8.20732 20.0808 7.82599C19.4221 7.44466 18.7115 7.25399 17.9488 7.25399C17.1861 7.25399 16.4755 7.44466 15.8168 7.82599C15.1581 8.18999 14.6208 8.73599 14.2048 9.46399C13.8061 10.1747 13.6068 11.024 13.6068 12.012C13.6068 13 13.8061 13.8667 14.2048 14.612C14.6208 15.3573 15.1581 15.9293 15.8168 16.328C16.4928 16.7093 17.2035 16.9 17.9488 16.9C18.7115 16.9 19.4221 16.7093 20.0808 16.328C20.7395 15.9467 21.2681 15.392 21.6668 14.664C22.0828 13.9187 22.2908 13.052 22.2908 12.064ZM36.4019 4.67999C37.5285 4.67999 38.5339 4.91399 39.4179 5.38199C40.3192 5.84999 41.0212 6.54332 41.5239 7.46199C42.0265 8.38066 42.2779 9.48999 42.2779 10.79V19.24H39.3399V11.232C39.3399 9.94932 39.0192 8.96999 38.3779 8.29399C37.7365 7.60066 36.8612 7.25399 35.7519 7.25399C34.6425 7.25399 33.7585 7.60066 33.0999 8.29399C32.4585 8.96999 32.1379 9.94932 32.1379 11.232V19.24H29.1739V4.91399H32.1379V6.55199C32.6232 5.96266 33.2385 5.50332 33.9839 5.17399C34.7465 4.84466 35.5525 4.67999 36.4019 4.67999ZM51.7266 12.09L58.3306 19.24H54.3266L49.0226 13.078V19.24H46.0586V-1.00136e-05H49.0226V11.18L54.2226 4.91399H58.3306L51.7266 12.09ZM59.4671 12.012C59.4671 10.5733 59.7618 9.29932 60.3511 8.18999C60.9578 7.08066 61.7725 6.22266 62.7951 5.61599C63.8351 4.99199 64.9791 4.67999 66.2271 4.67999C67.3538 4.67999 68.3331 4.90532 69.1651 5.35599C70.0145 5.78932 70.6905 6.33532 71.1931 6.99399V4.91399H74.1831V19.24H71.1931V17.108C70.6905 17.784 70.0058 18.3473 69.1391 18.798C68.2725 19.2487 67.2845 19.474 66.1751 19.474C64.9445 19.474 63.8178 19.162 62.7951 18.538C61.7725 17.8967 60.9578 17.0127 60.3511 15.886C59.7618 14.742 59.4671 13.4507 59.4671 12.012ZM71.1931 12.064C71.1931 11.076 70.9851 10.218 70.5691 9.48999C70.1705 8.76199 69.6418 8.20732 68.9831 7.82599C68.3245 7.44466 67.6138 7.25399 66.8511 7.25399C66.0885 7.25399 65.3778 7.44466 64.7191 7.82599C64.0605 8.18999 63.5231 8.73599 63.1071 9.46399C62.7085 10.1747 62.5091 11.024 62.5091 12.012C62.5091 13 62.7085 13.8667 63.1071 14.612C63.5231 15.3573 64.0605 15.9293 64.7191 16.328C65.3951 16.7093 66.1058 16.9 66.8511 16.9C67.6138 16.9 68.3245 16.7093 68.9831 16.328C69.6418 15.9467 70.1705 15.392 70.5691 14.664C70.9851 13.9187 71.1931 13.052 71.1931 12.064Z" fill="#3252DF"/>
<path d="M84.0302 19.422C82.8169 19.422 81.7249 19.214 80.7542 18.798C79.7836 18.3647 79.0209 17.758 78.4662 16.978C77.9116 16.198 77.6342 15.288 77.6342 14.248H80.8062C80.8756 15.028 81.1789 15.6693 81.7162 16.172C82.2709 16.6747 83.0422 16.926 84.0302 16.926C85.0529 16.926 85.8502 16.6833 86.4222 16.198C86.9942 15.6953 87.2802 15.054 87.2802 14.274C87.2802 13.6673 87.0982 13.1733 86.7342 12.792C86.3876 12.4107 85.9456 12.116 85.4082 11.908C84.8882 11.7 84.1602 11.4747 83.2242 11.232C82.0456 10.92 81.0836 10.608 80.3382 10.296C79.6102 9.96666 78.9862 9.46399 78.4662 8.78799C77.9462 8.11199 77.6862 7.21066 77.6862 6.08399C77.6862 5.04399 77.9462 4.13399 78.4662 3.35399C78.9862 2.57399 79.7142 1.97599 80.6502 1.55999C81.5862 1.14399 82.6696 0.935989 83.9002 0.935989C85.6509 0.935989 87.0809 1.37799 88.1902 2.26199C89.3169 3.12866 89.9409 4.32466 90.0622 5.84999H86.7862C86.7342 5.19132 86.4222 4.62799 85.8502 4.15999C85.2782 3.69199 84.5242 3.45799 83.5882 3.45799C82.7389 3.45799 82.0456 3.67466 81.5082 4.10799C80.9709 4.54132 80.7022 5.16532 80.7022 5.97999C80.7022 6.53466 80.8669 6.99399 81.1962 7.35799C81.5429 7.70466 81.9762 7.98199 82.4962 8.18999C83.0162 8.39799 83.7269 8.62332 84.6282 8.86599C85.8242 9.19532 86.7949 9.52466 87.5402 9.85399C88.3029 10.1833 88.9442 10.6947 89.4642 11.388C90.0016 12.064 90.2702 12.974 90.2702 14.118C90.2702 15.0367 90.0189 15.9033 89.5162 16.718C89.0309 17.5327 88.3116 18.1913 87.3582 18.694C86.4222 19.1793 85.3129 19.422 84.0302 19.422ZM97.2256 7.33199V15.262C97.2256 15.7993 97.347 16.1893 97.5896 16.432C97.8496 16.6573 98.283 16.77 98.8896 16.77H100.71V19.24H98.3696C97.035 19.24 96.0123 18.928 95.3016 18.304C94.591 17.68 94.2356 16.666 94.2356 15.262V7.33199H92.5456V4.91399H94.2356V1.35199H97.2256V4.91399H100.71V7.33199H97.2256ZM102.453 12.012C102.453 10.5733 102.748 9.29932 103.337 8.18999C103.944 7.08066 104.759 6.22266 105.781 5.61599C106.821 4.99199 107.965 4.67999 109.213 4.67999C110.34 4.67999 111.319 4.90532 112.151 5.35599C113.001 5.78932 113.677 6.33532 114.179 6.99399V4.91399H117.169V19.24H114.179V17.108C113.677 17.784 112.992 18.3473 112.125 18.798C111.259 19.2487 110.271 19.474 109.161 19.474C107.931 19.474 106.804 19.162 105.781 18.538C104.759 17.8967 103.944 17.0127 103.337 15.886C102.748 14.742 102.453 13.4507 102.453 12.012ZM114.179 12.064C114.179 11.076 113.971 10.218 113.555 9.48999C113.157 8.76199 112.628 8.20732 111.969 7.82599C111.311 7.44466 110.6 7.25399 109.837 7.25399C109.075 7.25399 108.364 7.44466 107.705 7.82599C107.047 8.18999 106.509 8.73599 106.093 9.46399C105.695 10.1747 105.495 11.024 105.495 12.012C105.495 13 105.695 13.8667 106.093 14.612C106.509 15.3573 107.047 15.9293 107.705 16.328C108.381 16.7093 109.092 16.9 109.837 16.9C110.6 16.9 111.311 16.7093 111.969 16.328C112.628 15.9467 113.157 15.392 113.555 14.664C113.971 13.9187 114.179 13.052 114.179 12.064ZM133.959 4.91399L125.171 25.974H122.103L125.015 19.006L119.373 4.91399H122.675L126.705 15.834L130.891 4.91399H133.959ZM137.391 19.422C136.854 19.422 136.403 19.24 136.039 18.876C135.675 18.512 135.493 18.0613 135.493 17.524C135.493 16.9867 135.675 16.536 136.039 16.172C136.403 15.808 136.854 15.626 137.391 15.626C137.911 15.626 138.353 15.808 138.717 16.172C139.081 16.536 139.263 16.9867 139.263 17.524C139.263 18.0613 139.081 18.512 138.717 18.876C138.353 19.24 137.911 19.422 137.391 19.422Z" fill="#152C5B"/>
</svg>
